# xmcd
#
# Track frame offsets:
#	150
#	12418
#	26207
#	50440
#	62588
#	75475
#	89227
#	101982
#	114542
#	126980
#	140173
#	153577
#	168661
#	180810
#	192255
#	203465
#	216246
#	231226
#	245315
#	258817
#	282065
#	294818
#
# Disc length: 4112 seconds
#
# Revision: 1
# Processed by: cddbd v1.5.1PL0 Copyright (c) Steve Scherf et al.
# Submitted via: audiograbber 1.83.01
#
DISCID=3c100e16
DTITLE=Louis Jordan - Jumpin' and Jivin'   disc 1
DYEAR=2005
DGENRE=Swing
TTITLE0=Choo Choo Ch'Boogie
TTITLE1=Ain't Nobody Here But Us Chickens
TTITLE2=Saturday Night Fish Fry
TTITLE3=Caldonia Boogie
TTITLE4=Ain't That Just Like a Woman
TTITLE5=Texas and Pacific
TTITLE6=Buzz Me
TTITLE7=Let The Good Time Roll
TTITLE8=Boogie Woogie Blue Plate
TTITLE9=Mop-Mop
TTITLE10=GI Jive
TTITLE11=Run Joe
TTITLE12=Stone Cold Dead In The Market
TTITLE13=Jack, You're Dead
TTITLE14=Don't Worry 'Bout That Mule
TTITLE15=What's The Use of Gettin' Sober
TTITLE16=You Can't Get That No More
TTITLE17=Ration Blues
TTITLE18=Five Guys Named Moe
TTITLE19=Blue Light Boogie
TTITLE20=Beans and Corn Bread
TTITLE21=Open The Door Richard
EXTD=
EXTT0=
EXTT1=
EXTT2=
EXTT3=
EXTT4=
EXTT5=
EXTT6=
EXTT7=
EXTT8=
EXTT9=
EXTT10=
EXTT11=
EXTT12=
EXTT13=
EXTT14=
EXTT15=
EXTT16=
EXTT17=
EXTT18=
EXTT19=
EXTT20=
EXTT21=
PLAYORDER=
